          <svg
            version="1.0"
            xmlns="http://www.w3.org/2000/svg"
            width="25rem"
            height="auto"
            viewBox="0 0 300.000000 225.000000"
            preserveAspectRatio="xMidYMid meet"
          >
            <g
              transform="translate(0.000000,225.000000) scale(0.100000,-0.100000)"
              fill="#dc2626"
              stroke=""
            >
              <path
                d="M1566 1613 c-3 -3 -92 -14 -146 -18 -215 -15 -248 -25 -241 -67 0 -5
-9 -9 -22 -9 -12 -1 -31 -3 -42 -4 -11 -2 -55 -5 -98 -9 -43 -3 -82 -8 -87
-11 -4 -2 -37 -7 -74 -10 -79 -7 -116 -19 -116 -39 0 -21 20 -31 55 -27 59 6
19 -11 -55 -23 -17 -3 -34 -113 -25 -154 6 -25 1 -28 -65 -36 -69 -9 -71 -12
-71 -186 0 -84 4 -157 9 -162 11 -11 58 -13 102 -4 38 8 188 30 310 46 41 5
87 12 101 15 19 4 28 1 33 -11 5 -13 16 -15 61 -10 42 4 58 2 70 -10 13 -14
24 -15 78 -5 34 6 82 14 107 16 25 3 68 9 95 14 28 5 52 7 54 5 2 -2 11 5 18
16 11 16 12 24 4 34 -13 15 -66 13 -191 -9 -73 -13 -90 -12 -90 4 0 7 33 13
155 25 17 2 39 6 50 8 11 3 38 9 60 13 22 4 44 10 50 13 5 3 24 7 42 9 29 3
33 1 33 -19 0 -25 31 -51 52 -43 14 5 93 14 178 21 30 3 67 11 82 18 15 8 45
17 68 21 59 10 63 28 4 20 -27 -4 -53 -11 -59 -15 -5 -4 -64 -15 -130 -24 -66
-9 -132 -19 -147 -22 -16 -3 -28 -1 -28 4 0 5 38 15 86 22 47 7 83 14 80 17
-2 3 -39 -1 -80 -8 -42 -6 -79 -9 -82 -6 -3 3 9 8 27 11 435 73 423 71 414 56
-3 -5 -23 -10 -43 -11 l-37 -1 30 -9 c39 -11 64 -3 75 25 4 13 14 23 22 23 30
2 94 16 111 24 17 10 22 69 5 69 -5 0 -4 8 1 18 15 29 16 259 1 277 -31 37
-91 -1 -93 -57 -1 -85 7 -215 14 -224 6 -8 2 -13 -14 -16 l-23 -4 -1 189 c-1
110 -6 194 -12 200 -14 14 -69 11 -87 -4 -8 -6 -14 -22 -14 -35 0 -25 -15 -40
-25 -24 -10 16 -75 12 -92 -6 -22 -22 -42 -2 -26 25 10 15 9 20 -2 25 -8 3
-15 12 -15 21 0 13 -22 20 -51 17 -3 -1 -37 -4 -75 -8 -38 -3 -80 -8 -94 -10
-85 -11 -88 -11 -84 1 8 19 -15 30 -59 30 -21 0 -40 -1 -41 -2z m79 -21 c-19
-17 -469 -65 -454 -49 3 4 75 14 160 22 85 9 177 20 204 25 70 11 101 12 90 2z
m305 -12 c0 -5 -6 -10 -12 -10 -16 -1 -222 -29 -453 -64 -153 -22 -187 -25
-174 -12 2 2 67 12 144 21 77 9 149 21 160 25 11 4 88 17 170 28 83 11 153 20
158 21 4 0 7 -3 7 -9z m270 -195 l0 -185 -24 0 c-13 0 -32 -3 -42 -7 -15 -6
-16 -1 -10 48 4 30 10 64 12 76 6 21 4 21 -29 11 l-35 -11 2 -66 1 -66 -32 -3
-33 -3 0 165 0 166 36 0 37 0 -6 -66 c-5 -63 -4 -66 17 -60 11 3 24 6 29 6 4
0 7 38 7 83 0 46 3 87 7 90 3 4 19 7 35 7 l28 0 0 -185z m-240 166 c0 -5 -26
-13 -57 -17 -32 -3 -185 -25 -340 -48 -156 -23 -283 -38 -283 -34 0 4 5 8 10
8 9 0 210 30 585 88 83 13 85 13 85 3z m-675 -40 c-12 -10 -544 -76 -552 -67
-10 10 14 13 262 41 132 15 242 29 244 31 2 2 16 4 30 4 15 0 21 -4 16 -9z
m523 -23 c-41 -27 -48 -29 -48 -10 0 14 7 19 30 19 21 0 27 -3 18 -9z m150 3
c8 -5 12 -22 10 -41 -3 -33 -4 -34 -49 -35 -59 -1 -95 -25 -110 -74 -27 -91
34 -134 134 -96 14 6 17 1 17 -33 0 -45 -5 -48 -77 -57 -109 -14 -179 91 -143
214 24 84 159 160 218 122z m149 -13 c-3 -8 -6 -5 -6 6 -1 11 2 17 5 13 3 -3
4 -12 1 -19z m-830 -4 c-7 -7 -450 -63 -456 -58 -10 10 15 14 179 34 96 11
198 24 225 28 50 8 64 7 52 -4z m1055 -111 c-2 -71 -5 -129 -6 -130 -1 -2 -18
-5 -37 -9 -22 -4 -29 -2 -21 4 10 7 12 39 10 130 -3 124 -2 130 37 131 19 1
20 -4 17 -126z m-592 113 c0 -1 -5 -17 -11 -34 -11 -32 -24 -37 -129 -44 -32
-3 -35 -6 -38 -36 l-3 -33 75 7 76 7 -4 -34 c-2 -19 -9 -35 -17 -36 -8 -1 -40
-5 -71 -8 l-58 -6 0 -36 c0 -32 2 -34 28 -29 15 2 48 8 75 11 l47 6 0 -35 c0
-22 -5 -36 -12 -36 -7 -1 -49 -7 -93 -15 -134 -24 -121 -42 -115 157 l5 173
95 11 c107 13 150 16 150 10z m-262 -58 c-3 -32 -5 -33 -50 -36 l-47 -3 -3
-142 -3 -142 -32 -3 -33 -3 0 137 0 137 -50 -6 -50 -6 0 38 0 38 103 10 c178
17 169 18 165 -19z m-302 -4 c19 -5 20 -9 10 -45 -8 -30 -14 -38 -26 -33 -37
16 -62 16 -80 -1 -26 -23 -12 -41 42 -55 73 -20 103 -75 74 -136 -31 -66 -127
-96 -177 -55 -20 16 -22 22 -12 44 11 24 14 25 42 14 39 -15 86 1 86 28 0 14
-13 24 -44 36 -83 30 -109 78 -79 145 20 44 104 74 164 58z m-178 -35 c-12
-35 -15 -35 -45 -7 -31 29 -29 33 16 35 39 2 39 2 29 -28z m984 -51 c-3 -61
-5 -67 -21 -58 -10 5 -22 5 -27 1 -13 -12 -68 -21 -80 -13 -15 10 -27 44 -25
67 4 32 45 63 87 67 73 7 69 11 66 -64z m-1047 32 c21 -19 25 -33 25 -78 0
-49 -4 -58 -36 -90 l-35 -35 50 -51 c28 -29 51 -55 51 -59 0 -4 -20 -7 -45 -7
-43 0 -47 3 -88 55 -56 73 -67 71 -67 -10 0 -36 -4 -65 -9 -65 -5 0 -21 -3
-37 -6 l-29 -6 2 184 2 183 48 6 c84 12 141 4 168 -21z m771 13 c-3 -3 -22 -7
-43 -9 -21 -3 -46 -6 -56 -9 -10 -2 -17 1 -14 8 2 6 21 13 43 15 21 2 41 5 42
7 2 2 10 1 18 -2 8 -3 13 -8 10 -10z m-245 -32 c0 -9 1 -68 3 -132 l2 -117
-33 0 -32 0 0 126 c0 69 1 128 3 131 2 3 16 7 30 7 18 1 26 -3 27 -15z m-180
-11 c1 -3 3 -62 4 -131 l3 -127 -57 -7 c-31 -3 -65 -9 -76 -12 -13 -3 -8 5 17
26 48 41 65 90 49 143 -12 40 -58 78 -93 78 -10 0 -18 5 -18 11 0 6 13 8 30 5
17 -2 36 1 42 8 10 11 96 16 99 6z m-261 -112 c0 -4 18 -13 40 -19 54 -16 46
-35 -13 -31 -39 3 -47 0 -58 -20 -7 -13 -12 -26 -11 -30 4 -15 -15 -8 -33 12
-17 19 -15 50 4 50 5 0 15 15 22 34 11 30 15 33 31 23 10 -7 18 -15 18 -19z
m693 20 c3 -10 -14 -13 -64 -14 -38 0 -69 1 -69 3 0 21 125 30 133 11z m65
-81 l34 -27 -30 0 c-17 0 -36 -2 -44 -5 -10 -4 -13 4 -10 36 3 23 7 37 11 33
3 -5 21 -22 39 -37z m-1088 -11 c0 -39 -3 -45 -22 -48 -21 -3 -23 -9 -26 -80
-3 -69 -1 -78 15 -78 36 0 62 13 69 32 4 12 11 17 21 14 18 -7 160 9 551 64
333 47 316 46 301 21 -7 -10 -19 -16 -28 -14 -9 2 -115 -10 -236 -28 -121 -17
-231 -31 -245 -30 -20 1 -22 -1 -10 -10 11 -8 -1 -9 -45 -6 -42 4 -53 3 -35
-4 18 -6 6 -7 -40 -4 -47 3 -59 2 -45 -5 15 -8 4 -9 -40 -6 -43 4 -54 2 -40
-5 14 -6 4 -8 -35 -4 -40 4 -60 2 -75 -9 -11 -9 -35 -16 -52 -16 -18 0 -33 -5
-33 -11 0 -6 8 -8 18 -5 9 3 127 19 262 35 135 17 337 44 450 61 190 28 269
36 259 26 -2 -2 -116 -21 -254 -41 -137 -20 -252 -40 -255 -45 -4 -6 -491 -80
-529 -80 -7 0 -11 52 -11 154 l0 155 43 4 c23 2 48 4 55 5 8 1 12 -13 12 -42z
m1644 27 c4 -9 3 -20 -1 -23 -17 -16 -668 -109 -685 -99 -13 8 -5 10 212 39
178 24 452 69 459 76 7 7 -23 5 -80 -6 -47 -9 -599 -90 -614 -90 -3 0 -5 4 -5
8 0 5 64 17 143 27 78 9 232 32 342 50 110 18 205 33 211 34 7 0 15 -7 18 -16z
m-1494 -94 c0 -7 10 -20 22 -31 19 -16 20 -21 8 -28 -8 -6 -25 -10 -38 -10
-19 0 -22 5 -20 33 1 17 3 35 5 40 6 11 23 8 23 -4z m-150 -34 c0 -14 6 -34
13 -45 10 -17 9 -22 -3 -30 -8 -5 -18 -6 -22 -4 -12 7 -10 104 2 104 6 0 10
-11 10 -25z m379 -1 c2 -2 -5 -4 -17 -4 -11 0 -28 -3 -36 -6 -12 -4 -15 -2
-10 9 4 10 14 14 32 11 15 -3 29 -7 31 -10z m231 -98 c0 -10 -21 -16 -72 -22
-94 -11 -98 -11 -100 1 -2 6 33 15 77 21 44 6 83 12 88 13 4 0 7 -5 7 -13z
m295 4 c3 -5 3 -10 -2 -10 -4 0 -82 -11 -173 -25 -149 -22 -182 -24 -169 -11
5 5 284 54 316 55 12 1 25 -3 28 -9z"
              />
              <path
                d="M810 1256 l0 -64 36 8 c47 11 74 37 74 71 0 34 -24 49 -74 49 l-36 0
0 -64z m68 35 c18 -11 12 -41 -10 -55 -20 -12 -31 -4 -33 27 -3 31 18 44 43
28z"
              />
              <path d="M2073 1053 c9 -2 23 -2 30 0 6 3 -1 5 -18 5 -16 0 -22 -2 -12 -5z" />
              <path d="M2013 1043 c9 -2 23 -2 30 0 6 3 -1 5 -18 5 -16 0 -22 -2 -12 -5z" />
              <path d="M1943 1033 c9 -2 25 -2 35 0 9 3 1 5 -18 5 -19 0 -27 -2 -17 -5z" />
            </g>
          </svg>